<svg id="Слой_1" data-name="Слой 1" xmlns="http://www.w3.org/2000/svg" viewBox="0 0 812.67 247.74"><defs><style>.cls-1,.cls-2{fill:#eb5e28;}.cls-2{font-size:130px;font-family:HelveticaNeueCyr;}</style></defs><title>logo1</title><path class="cls-1" d="M292.92,51.48h-0.26c-4.92,0-5.68-4.25-5.76-6.23V14.2a6,6,0,0,0-6-6H192.14c-22.28,0-30.58,8.25-32.65,10.85l-0.57.78h0l-1.76,2.41h0c-2.35,3.24-4.41,1.86-5.4.8l-3.36-4.19-1.66-2c-2.8-2.93-10.08-8.66-24.5-8.66H27.67a6,6,0,0,0-6,6V44.86c0,5.36-2.91,6.44-4.7,6.62H15.63c-1.46.09-4.84,0.93-4.84,7.17V204.73a6.49,6.49,0,0,0,6.49,6.49h86.31c27.54,0,39.54,10.39,43.14,14.37l2.05,2.54h0s5.51,6.22,11.31,0h0l1.21-1.42h0l1.53-1.8c0-.05.42-0.47,0.95-1,4.6-4.47,16.08-12.68,38.54-12.68h88.95a6.48,6.48,0,0,0,6.49-6.49V57.23C297.77,52,293.94,51.51,292.92,51.48ZM273.53,181.81a5.3,5.3,0,0,1-5.4,5.21H195c-26,0-35.5,11.76-35.5,11.76l-1.2,1.61-0.56.79h0c-2.49,3.37-6.13,0-6.15,0l-1.69-2.1c-1.25-1.5-10.82-12.05-34-12.05H40.42A5.3,5.3,0,0,1,35,181.81V26.13a5.29,5.29,0,0,1,5.38-5.2H99c43.58,0,47.7,24.75,48,31.94V161.14c0,7.87,3.75,9.34,5.86,9.55H156c2.15-.22,5.58-1.5,5.58-7.63V51.48h0c0.33-9,3.84-30.55,30-30.55h76.54a5.29,5.29,0,0,1,5.4,5.2V181.81Z" transform="translate(-10.79 6.93)"/><text class="cls-2" transform="translate(293.98 110.5)">БУК</text><text class="cls-2" transform="translate(293.98 219.92)">ВОКРУГ</text></svg>